<mxfile host="app.diagrams.net" modified="2024-05-19T07:39:44.030Z" agent="Mozilla/5.0 (Macintosh; Intel Mac OS X 10_15_7) AppleWebKit/537.36 (KHTML, like Gecko) Chrome/124.0.0.0 Safari/537.36" etag="UGAhmc95F0s9lP2gEl6Y" version="23.1.0" type="github">
  <diagram name="第 1 页" id="SWAsnjmx8WbGRcp9eEij">
    <mxGraphModel dx="984" dy="659" grid="1" gridSize="10" guides="1" tooltips="1" connect="1" arrows="1" fold="1" page="1" pageScale="1" pageWidth="827" pageHeight="1169" math="0" shadow="0">
      <root>
        <mxCell id="0" />
        <mxCell id="1" parent="0" />
        <mxCell id="9d2OV416o8DgazWTX3bJ-1" value="vue、vuetify" style="rounded=1;whiteSpace=wrap;html=1;" vertex="1" parent="1">
          <mxGeometry x="380" y="70" width="120" height="60" as="geometry" />
        </mxCell>
        <mxCell id="9d2OV416o8DgazWTX3bJ-2" value="flask" style="rounded=1;whiteSpace=wrap;html=1;" vertex="1" parent="1">
          <mxGeometry x="380" y="210" width="120" height="60" as="geometry" />
        </mxCell>
        <mxCell id="9d2OV416o8DgazWTX3bJ-3" value="mysql" style="shape=cylinder3;whiteSpace=wrap;html=1;boundedLbl=1;backgroundOutline=1;size=15;" vertex="1" parent="1">
          <mxGeometry x="410" y="350" width="60" height="80" as="geometry" />
        </mxCell>
        <mxCell id="9d2OV416o8DgazWTX3bJ-4" value="Python爬取" style="rounded=1;whiteSpace=wrap;html=1;" vertex="1" parent="1">
          <mxGeometry x="110" y="350" width="120" height="60" as="geometry" />
        </mxCell>
        <mxCell id="9d2OV416o8DgazWTX3bJ-5" value="" style="shape=flexArrow;endArrow=classic;html=1;rounded=0;" edge="1" parent="1">
          <mxGeometry width="50" height="50" relative="1" as="geometry">
            <mxPoint x="280" y="379.5" as="sourcePoint" />
            <mxPoint x="370" y="379.5" as="targetPoint" />
          </mxGeometry>
        </mxCell>
        <mxCell id="9d2OV416o8DgazWTX3bJ-6" value="" style="endArrow=classic;startArrow=classic;html=1;rounded=0;" edge="1" parent="1">
          <mxGeometry width="50" height="50" relative="1" as="geometry">
            <mxPoint x="439.5" y="340" as="sourcePoint" />
            <mxPoint x="439.5" y="280" as="targetPoint" />
          </mxGeometry>
        </mxCell>
        <mxCell id="9d2OV416o8DgazWTX3bJ-7" value="" style="endArrow=classic;startArrow=classic;html=1;rounded=0;" edge="1" parent="1">
          <mxGeometry width="50" height="50" relative="1" as="geometry">
            <mxPoint x="440" y="200" as="sourcePoint" />
            <mxPoint x="440" y="140" as="targetPoint" />
          </mxGeometry>
        </mxCell>
      </root>
    </mxGraphModel>
  </diagram>
</mxfile>
